<?xml version="1.0" encoding="UTF-8" standalone="no"?>
<!-- Created with Inkscape (http://www.inkscape.org/) -->

<svg
   xmlns:dc="http://purl.org/dc/elements/1.1/"
   xmlns:cc="http://creativecommons.org/ns#"
   xmlns:rdf="http://www.w3.org/1999/02/22-rdf-syntax-ns#"
   xmlns:svg="http://www.w3.org/2000/svg"
   xmlns="http://www.w3.org/2000/svg"
   xmlns:xlink="http://www.w3.org/1999/xlink"
   xmlns:sodipodi="http://sodipodi.sourceforge.net/DTD/sodipodi-0.dtd"
   xmlns:inkscape="http://www.inkscape.org/namespaces/inkscape"
   width="21.863226mm"
   height="24.780041mm"
   viewBox="0 0 77.468122 87.803293"
   id="svg4230"
   version="1.1"
   inkscape:version="0.92.1 r15371"
   sodipodi:docname="data.svg">
  <defs
     id="defs4232">
    <linearGradient
       inkscape:collect="always"
       id="linearGradient4487">
      <stop
         style="stop-color:#58e6f2;stop-opacity:1"
         offset="0"
         id="stop4483" />
      <stop
         style="stop-color:#b0ff8b;stop-opacity:1"
         offset="1"
         id="stop4485" />
    </linearGradient>
    <linearGradient
       inkscape:collect="always"
       xlink:href="#linearGradient4487"
       id="linearGradient4489"
       x1="83.006104"
       y1="422.94257"
       x2="177.34923"
       y2="577.63007"
       gradientUnits="userSpaceOnUse" />
  </defs>
  <sodipodi:namedview
     id="base"
     pagecolor="#000000"
     bordercolor="#666666"
     borderopacity="1.0"
     inkscape:pageopacity="0"
     inkscape:pageshadow="2"
     inkscape:zoom="1"
     inkscape:cx="-21.53794"
     inkscape:cy="59.342702"
     inkscape:document-units="px"
     inkscape:current-layer="layer1"
     showgrid="false"
     fit-margin-top="0"
     fit-margin-left="0"
     fit-margin-right="0"
     fit-margin-bottom="0"
     inkscape:window-width="1920"
     inkscape:window-height="1017"
     inkscape:window-x="-8"
     inkscape:window-y="-8"
     inkscape:window-maximized="1" />
  <metadata
     id="metadata4235">
    <rdf:RDF>
      <cc:Work
         rdf:about="">
        <dc:format>image/svg+xml</dc:format>
        <dc:type
           rdf:resource="http://purl.org/dc/dcmitype/StillImage" />
        <dc:title />
      </cc:Work>
    </rdf:RDF>
  </metadata>
  <g
     inkscape:label="Layer 1"
     inkscape:groupmode="layer"
     id="layer1"
     transform="translate(-83.943605,-451.22843)">
    <path
       inkscape:connector-curvature="0"
       id="path4284"
       d="m 122.67734,451.22843 a 38.700508,11.082805 0 0 0 -38.653755,10.81588 h -0.07998 v 9.01071 c 14.646943,19.25743 72.129095,12.36613 77.468125,0 v -9.01071 h -0.0668 A 38.700508,11.082805 0 0 0 122.6773,451.22843 Z m -38.733734,29.58289 v 9.01071 c 13.43888,19.14029 73.738414,13.09064 77.468124,0 v -9.01071 c -16.69745,11.45538 -57.36623,12.11413 -77.468124,0 z m 0,18.47023 v 9.01071 c 13.43888,19.14028 73.738414,13.09063 77.468124,0 v -9.01071 c -16.69745,11.45537 -57.36623,12.11413 -77.468124,0 z m 0,18.54889 v 9.01004 c 13.43888,19.14029 73.738414,13.09063 77.468124,0 v -9.01004 c -16.69745,11.45537 -57.36623,12.11412 -77.468124,0 z"
       style="fill:url(#linearGradient4489);fill-opacity:1;fill-rule:evenodd;stroke:none;stroke-width:0.65871584px;stroke-linecap:butt;stroke-linejoin:miter;stroke-opacity:1" />
  </g>
</svg>
